<?xml version="1.0" encoding="utf-8"?>
<!-- Generator: Adobe Illustrator 24.0.1, SVG Export Plug-In . SVG Version: 6.00 Build 0)  -->
<svg version="1.1" id="Layer_1" xmlns="http://www.w3.org/2000/svg" xmlns:xlink="http://www.w3.org/1999/xlink" x="0px" y="0px"
	 viewBox="0 0 1024 1024" style="enable-background:new 0 0 1024 1024;" xml:space="preserve">
<style type="text/css">
	.st0{fill:#231F20;}
</style>
<path class="st0" d="M965.7,732L851.5,850.5c-4.2,4.2-4.2,4.2-8.5,4.2l0,0c-4.2,0-4.2,0-8.5,0s-6.5,0-8.5,0c-1.9,0-4.4-0.3-8.5-4.2
	l0,0l0,0L703.4,732c-8.5-8.5-8.5-21.2,0-29.6c8.5-8.5,21.2-8.5,29.6,0l80.4,80.4l4.2-275C817.7,309,656.9,144,453.9,144
	C255,148.3,94.3,309,94.3,512S255,875.8,458.1,875.8c63.5,0,122.7-16.9,177.7-46.5c8.5-4.2,21.2-4.2,29.6,8.5
	c4.2,8.5,4.2,21.2-8.5,29.6c-59.2,33.8-131.1,50.8-198.8,50.8C233.9,913.9,52,732,52,512S233.9,106,458.1,106S864.2,287.8,864.2,512
	l0,0l0,0L860,782.8l76.1-80.4c8.5-8.5,21.2-8.5,29.6,0C974.2,710.9,974.2,723.6,965.7,732z M439.4,754.4v-57.9
	c-33.2-0.6-67.6-10.9-87.7-25.2l13.8-38.4c20.6,13.8,50.4,24.6,82.5,24.6c40.7,0,68.2-23.5,68.2-56.2c0-31.5-22.4-51-64.8-68.2
	c-58.5-22.9-94.6-49.3-94.6-99.2c0-47.6,33.8-83.7,86.5-92.3v-57.9H479v55.6c34.4,1.1,57.9,10.3,74.5,20.1l-14.3,37.8
	c-12-6.9-35.5-19.5-72.2-19.5c-44.1,0-60.8,26.4-60.8,49.3c0,29.8,21.2,44.7,71.1,65.3c59,24.1,88.8,53.9,88.8,104.9
	c0,45.3-31.5,87.7-90.6,97.4v59.6H439.4z"/>
</svg>
