<?xml version="1.0" encoding="utf-8"?>
<!-- Generator: Adobe Illustrator 24.0.1, SVG Export Plug-In . SVG Version: 6.00 Build 0)  -->
<svg version="1.1" id="Layer_1" xmlns="http://www.w3.org/2000/svg" xmlns:xlink="http://www.w3.org/1999/xlink" x="0px" y="0px"
	 viewBox="0 0 1024 1024" style="enable-background:new 0 0 1024 1024;" xml:space="preserve">
<style type="text/css">
	.st0{fill:#231F20;}
</style>
<path class="st0" d="M659.8,825.6c4.1,8.2,4.1,20.5-8.2,28.7c-57.4,32.8-127.1,49.2-192.7,49.2C241.6,903.5,65.3,727.2,65.3,514
	s176.3-393.6,393.6-393.6S852.5,296.8,852.5,514c0,12.3-8.2,20.5-20.5,20.5c-12.3,0-20.5-8.2-20.5-20.5
	c0-192.7-155.8-352.6-352.6-352.6S106.3,317.3,106.3,514s155.8,352.6,352.6,352.6c61.5,0,118.9-16.4,172.2-45.1
	C639.3,813.3,651.6,817.4,659.8,825.6z M950.9,698.5c-4.1,4.1-8.2,4.1-12.3,4.1c-4.1,0-12.3-4.1-16.4-8.2l-73.8-77.9v262.4
	c0,12.3-8.2,20.5-20.5,20.5s-20.5-8.2-20.5-20.5V616.5l-77.9,77.9c-8.2,8.2-20.5,8.2-28.7,0c-8.2-8.2-8.2-20.5,0-28.7l114.8-114.8
	l0,0l0,0c4.1-4.1,4.1-4.1,8.2-4.1c0,0,0,0,4.1,0c4.1,0,8.2,0,8.2,0l0,0l0,0c4.1,0,5.7,1.4,8.2,4.1c2.5,2.7,106.6,114.8,106.6,114.8
	C963.2,678,959.1,690.3,950.9,698.5z M439.4,754.4v-57.9c-33.2-0.6-67.6-10.9-87.7-25.2l13.8-38.4c20.6,13.8,50.4,24.6,82.5,24.6
	c40.7,0,68.2-23.5,68.2-56.2c0-31.5-22.4-51-64.8-68.2c-58.5-22.9-94.6-49.3-94.6-99.2c0-47.6,33.8-83.7,86.5-92.3v-57.9H479v55.6
	c34.4,1.1,57.9,10.3,74.5,20.1l-14.3,37.8c-12-6.9-35.5-19.5-72.2-19.5c-44.1,0-60.8,26.4-60.8,49.3c0,29.8,21.2,44.7,71.1,65.3
	c59,24.1,88.8,53.9,88.8,104.9c0,45.3-31.5,87.7-90.6,97.4v59.6H439.4z"/>
</svg>
