<?xml version="1.0" encoding="utf-8"?>
<!-- Generator: Adobe Illustrator 24.0.1, SVG Export Plug-In . SVG Version: 6.00 Build 0)  -->
<svg version="1.1" id="Layer_1" focusable="false" xmlns="http://www.w3.org/2000/svg" xmlns:xlink="http://www.w3.org/1999/xlink"
	 x="0px" y="0px" viewBox="0 0 1024 1024" style="enable-background:new 0 0 1024 1024;" xml:space="preserve">
<path d="M950.8,467H827V343.2c0-6.2-5.1-11.3-11.3-11.3h-22.5c-6.2,0-11.3,5.1-11.3,11.3V467H658.3c-6.2,0-11.3,5.1-11.3,11.3v22.5
	c0,6.2,5.1,11.3,11.3,11.3H782v123.8c0,6.2,5.1,11.3,11.3,11.3h22.5c6.2,0,11.3-5.1,11.3-11.3V512h123.8c6.2,0,11.3-5.1,11.3-11.3
	v-22.5C962,472.1,957,467,950.8,467z M503,557c-40.4,0-59.8,22.5-126,22.5S291.5,557,251,557c-104.4,0-189,84.7-189,189v58.5
	c0,37.3,30.2,67.5,67.5,67.5h495.1c37.3,0,67.5-30.2,67.5-67.5V746C692,641.7,607.4,557,503,557z M647,804.5
	c0,12.4-10.1,22.5-22.5,22.5H129.5c-12.4,0-22.5-10.1-22.5-22.5V746c0-79.5,64.6-144,144-144c27.6,0,55,22.5,126,22.5
	c70.9,0,98.4-22.5,126-22.5c79.5,0,144,64.6,144,144V804.5z M377,512c99.4,0,180-80.6,180-180s-80.6-180-180-180s-180,80.6-180,180
	S277.6,512,377,512z M377,197c74.4,0,135,60.6,135,135s-60.6,135-135,135s-135-60.6-135-135S302.6,197,377,197z"/>
</svg>
